<mxfile host="app.diagrams.net" agent="Mozilla/5.0 (Windows NT 10.0; Win64; x64) AppleWebKit/537.36 (KHTML, like Gecko) Chrome/138.0.0.0 Safari/537.36" version="28.0.7">
  <diagram name="Navegación Web" id="BIPMMsv8EeulKKkKwsL0">
    <mxGraphModel dx="1158" dy="928" grid="1" gridSize="10" guides="1" tooltips="1" connect="1" arrows="1" fold="1" page="1" pageScale="1" pageWidth="827" pageHeight="1169" math="0" shadow="0">
      <root>
        <mxCell id="0" />
        <mxCell id="1" parent="0" />
        <mxCell id="rAgP8tMJE8_hUWwcrC2L-54" value="" style="edgeStyle=orthogonalEdgeStyle;rounded=0;orthogonalLoop=1;jettySize=auto;html=1;" edge="1" parent="1" source="rAgP8tMJE8_hUWwcrC2L-52" target="rAgP8tMJE8_hUWwcrC2L-53">
          <mxGeometry relative="1" as="geometry" />
        </mxCell>
        <mxCell id="rAgP8tMJE8_hUWwcrC2L-52" value="inicio" style="strokeWidth=2;html=1;shape=mxgraph.flowchart.start_2;whiteSpace=wrap;" vertex="1" parent="1">
          <mxGeometry x="370" y="20" width="100" height="100" as="geometry" />
        </mxCell>
        <mxCell id="rAgP8tMJE8_hUWwcrC2L-56" value="" style="edgeStyle=orthogonalEdgeStyle;rounded=0;orthogonalLoop=1;jettySize=auto;html=1;" edge="1" parent="1" source="rAgP8tMJE8_hUWwcrC2L-53" target="rAgP8tMJE8_hUWwcrC2L-55">
          <mxGeometry relative="1" as="geometry" />
        </mxCell>
        <mxCell id="rAgP8tMJE8_hUWwcrC2L-58" value="" style="edgeStyle=orthogonalEdgeStyle;rounded=0;orthogonalLoop=1;jettySize=auto;html=1;" edge="1" parent="1" source="rAgP8tMJE8_hUWwcrC2L-53" target="rAgP8tMJE8_hUWwcrC2L-57">
          <mxGeometry relative="1" as="geometry" />
        </mxCell>
        <mxCell id="rAgP8tMJE8_hUWwcrC2L-60" value="" style="edgeStyle=orthogonalEdgeStyle;rounded=0;orthogonalLoop=1;jettySize=auto;html=1;" edge="1" parent="1" source="rAgP8tMJE8_hUWwcrC2L-53" target="rAgP8tMJE8_hUWwcrC2L-59">
          <mxGeometry relative="1" as="geometry" />
        </mxCell>
        <mxCell id="rAgP8tMJE8_hUWwcrC2L-53" value="¡Que acción quiere hacer el ususario?" style="rhombus;whiteSpace=wrap;html=1;strokeWidth=2;" vertex="1" parent="1">
          <mxGeometry x="200" y="170" width="440" height="80" as="geometry" />
        </mxCell>
        <mxCell id="rAgP8tMJE8_hUWwcrC2L-66" value="" style="edgeStyle=orthogonalEdgeStyle;rounded=0;orthogonalLoop=1;jettySize=auto;html=1;" edge="1" parent="1" source="rAgP8tMJE8_hUWwcrC2L-55" target="rAgP8tMJE8_hUWwcrC2L-65">
          <mxGeometry relative="1" as="geometry" />
        </mxCell>
        <mxCell id="rAgP8tMJE8_hUWwcrC2L-55" value="retroceder" style="whiteSpace=wrap;html=1;strokeWidth=2;" vertex="1" parent="1">
          <mxGeometry x="360" y="320" width="120" height="60" as="geometry" />
        </mxCell>
        <mxCell id="rAgP8tMJE8_hUWwcrC2L-68" value="" style="edgeStyle=orthogonalEdgeStyle;rounded=0;orthogonalLoop=1;jettySize=auto;html=1;" edge="1" parent="1" source="rAgP8tMJE8_hUWwcrC2L-57" target="rAgP8tMJE8_hUWwcrC2L-67">
          <mxGeometry relative="1" as="geometry" />
        </mxCell>
        <mxCell id="rAgP8tMJE8_hUWwcrC2L-57" value="avanzar&amp;nbsp;" style="whiteSpace=wrap;html=1;strokeWidth=2;" vertex="1" parent="1">
          <mxGeometry x="650" y="320" width="120" height="60" as="geometry" />
        </mxCell>
        <mxCell id="rAgP8tMJE8_hUWwcrC2L-64" value="" style="edgeStyle=orthogonalEdgeStyle;rounded=0;orthogonalLoop=1;jettySize=auto;html=1;" edge="1" parent="1" source="rAgP8tMJE8_hUWwcrC2L-59" target="rAgP8tMJE8_hUWwcrC2L-63">
          <mxGeometry relative="1" as="geometry" />
        </mxCell>
        <mxCell id="rAgP8tMJE8_hUWwcrC2L-59" value="cargar pagina" style="whiteSpace=wrap;html=1;strokeWidth=2;" vertex="1" parent="1">
          <mxGeometry x="70" y="320" width="120" height="60" as="geometry" />
        </mxCell>
        <mxCell id="rAgP8tMJE8_hUWwcrC2L-73" value="" style="edgeStyle=orthogonalEdgeStyle;rounded=0;orthogonalLoop=1;jettySize=auto;html=1;" edge="1" parent="1" source="rAgP8tMJE8_hUWwcrC2L-63" target="rAgP8tMJE8_hUWwcrC2L-72">
          <mxGeometry relative="1" as="geometry" />
        </mxCell>
        <mxCell id="rAgP8tMJE8_hUWwcrC2L-74" value="" style="edgeStyle=orthogonalEdgeStyle;rounded=0;orthogonalLoop=1;jettySize=auto;html=1;" edge="1" parent="1" source="rAgP8tMJE8_hUWwcrC2L-63" target="rAgP8tMJE8_hUWwcrC2L-72">
          <mxGeometry relative="1" as="geometry" />
        </mxCell>
        <mxCell id="rAgP8tMJE8_hUWwcrC2L-83" value="SI" style="edgeLabel;html=1;align=center;verticalAlign=middle;resizable=0;points=[];" vertex="1" connectable="0" parent="rAgP8tMJE8_hUWwcrC2L-74">
          <mxGeometry x="0.0154" y="-2" relative="1" as="geometry">
            <mxPoint x="1" as="offset" />
          </mxGeometry>
        </mxCell>
        <mxCell id="rAgP8tMJE8_hUWwcrC2L-81" style="edgeStyle=orthogonalEdgeStyle;rounded=0;orthogonalLoop=1;jettySize=auto;html=1;entryX=0.5;entryY=0;entryDx=0;entryDy=0;" edge="1" parent="1" source="rAgP8tMJE8_hUWwcrC2L-63" target="rAgP8tMJE8_hUWwcrC2L-77">
          <mxGeometry relative="1" as="geometry" />
        </mxCell>
        <mxCell id="rAgP8tMJE8_hUWwcrC2L-84" value="NO" style="edgeLabel;html=1;align=center;verticalAlign=middle;resizable=0;points=[];" vertex="1" connectable="0" parent="rAgP8tMJE8_hUWwcrC2L-81">
          <mxGeometry x="-0.0162" y="-2" relative="1" as="geometry">
            <mxPoint x="-1" as="offset" />
          </mxGeometry>
        </mxCell>
        <mxCell id="rAgP8tMJE8_hUWwcrC2L-63" value="¡hay pagina actual?" style="rhombus;whiteSpace=wrap;html=1;strokeWidth=2;" vertex="1" parent="1">
          <mxGeometry x="90" y="470" width="190" height="80" as="geometry" />
        </mxCell>
        <mxCell id="rAgP8tMJE8_hUWwcrC2L-90" value="" style="edgeStyle=orthogonalEdgeStyle;rounded=0;orthogonalLoop=1;jettySize=auto;html=1;" edge="1" parent="1" source="rAgP8tMJE8_hUWwcrC2L-65" target="rAgP8tMJE8_hUWwcrC2L-89">
          <mxGeometry relative="1" as="geometry" />
        </mxCell>
        <mxCell id="rAgP8tMJE8_hUWwcrC2L-101" value="SI" style="edgeLabel;html=1;align=center;verticalAlign=middle;resizable=0;points=[];" vertex="1" connectable="0" parent="rAgP8tMJE8_hUWwcrC2L-90">
          <mxGeometry x="0.6194" y="-1" relative="1" as="geometry">
            <mxPoint as="offset" />
          </mxGeometry>
        </mxCell>
        <mxCell id="rAgP8tMJE8_hUWwcrC2L-100" style="edgeStyle=orthogonalEdgeStyle;rounded=0;orthogonalLoop=1;jettySize=auto;html=1;exitX=0.5;exitY=1;exitDx=0;exitDy=0;entryX=0;entryY=0.5;entryDx=0;entryDy=0;" edge="1" parent="1" source="rAgP8tMJE8_hUWwcrC2L-65" target="rAgP8tMJE8_hUWwcrC2L-97">
          <mxGeometry relative="1" as="geometry" />
        </mxCell>
        <mxCell id="rAgP8tMJE8_hUWwcrC2L-65" value="¿hay paginas atras?" style="rhombus;whiteSpace=wrap;html=1;strokeWidth=2;" vertex="1" parent="1">
          <mxGeometry x="324" y="470" width="190" height="80" as="geometry" />
        </mxCell>
        <mxCell id="rAgP8tMJE8_hUWwcrC2L-96" value="" style="edgeStyle=orthogonalEdgeStyle;rounded=0;orthogonalLoop=1;jettySize=auto;html=1;" edge="1" parent="1" source="rAgP8tMJE8_hUWwcrC2L-67" target="rAgP8tMJE8_hUWwcrC2L-95">
          <mxGeometry relative="1" as="geometry" />
        </mxCell>
        <mxCell id="rAgP8tMJE8_hUWwcrC2L-106" style="edgeStyle=orthogonalEdgeStyle;rounded=0;orthogonalLoop=1;jettySize=auto;html=1;exitX=0.5;exitY=1;exitDx=0;exitDy=0;entryX=0;entryY=0.5;entryDx=0;entryDy=0;" edge="1" parent="1" source="rAgP8tMJE8_hUWwcrC2L-67" target="rAgP8tMJE8_hUWwcrC2L-105">
          <mxGeometry relative="1" as="geometry" />
        </mxCell>
        <mxCell id="rAgP8tMJE8_hUWwcrC2L-67" value="¿hay paginas adelante?" style="rhombus;whiteSpace=wrap;html=1;strokeWidth=2;" vertex="1" parent="1">
          <mxGeometry x="570" y="470" width="190" height="80" as="geometry" />
        </mxCell>
        <mxCell id="rAgP8tMJE8_hUWwcrC2L-86" value="" style="edgeStyle=orthogonalEdgeStyle;rounded=0;orthogonalLoop=1;jettySize=auto;html=1;" edge="1" parent="1" source="rAgP8tMJE8_hUWwcrC2L-72" target="rAgP8tMJE8_hUWwcrC2L-85">
          <mxGeometry relative="1" as="geometry" />
        </mxCell>
        <mxCell id="rAgP8tMJE8_hUWwcrC2L-72" value="guardar en lapila de atras&amp;nbsp;" style="whiteSpace=wrap;html=1;strokeWidth=2;" vertex="1" parent="1">
          <mxGeometry x="30" y="650" width="120" height="60" as="geometry" />
        </mxCell>
        <mxCell id="rAgP8tMJE8_hUWwcrC2L-77" value="no guardar nada&amp;nbsp;" style="rounded=0;whiteSpace=wrap;html=1;" vertex="1" parent="1">
          <mxGeometry x="210" y="650" width="120" height="60" as="geometry" />
        </mxCell>
        <mxCell id="rAgP8tMJE8_hUWwcrC2L-88" value="" style="edgeStyle=orthogonalEdgeStyle;rounded=0;orthogonalLoop=1;jettySize=auto;html=1;" edge="1" parent="1" source="rAgP8tMJE8_hUWwcrC2L-85" target="rAgP8tMJE8_hUWwcrC2L-87">
          <mxGeometry relative="1" as="geometry" />
        </mxCell>
        <mxCell id="rAgP8tMJE8_hUWwcrC2L-85" value="Limpia pila adelante" style="whiteSpace=wrap;html=1;strokeWidth=2;" vertex="1" parent="1">
          <mxGeometry x="30" y="790" width="120" height="60" as="geometry" />
        </mxCell>
        <mxCell id="rAgP8tMJE8_hUWwcrC2L-87" value="mostrar nueva paginas&amp;nbsp;" style="whiteSpace=wrap;html=1;strokeWidth=2;" vertex="1" parent="1">
          <mxGeometry x="30" y="930" width="120" height="50" as="geometry" />
        </mxCell>
        <mxCell id="rAgP8tMJE8_hUWwcrC2L-92" value="" style="edgeStyle=orthogonalEdgeStyle;rounded=0;orthogonalLoop=1;jettySize=auto;html=1;" edge="1" parent="1" source="rAgP8tMJE8_hUWwcrC2L-89" target="rAgP8tMJE8_hUWwcrC2L-91">
          <mxGeometry relative="1" as="geometry" />
        </mxCell>
        <mxCell id="rAgP8tMJE8_hUWwcrC2L-89" value="guardar pagina actual en la pila de adelante&amp;nbsp;" style="whiteSpace=wrap;html=1;strokeWidth=2;" vertex="1" parent="1">
          <mxGeometry x="359" y="640" width="171" height="70" as="geometry" />
        </mxCell>
        <mxCell id="rAgP8tMJE8_hUWwcrC2L-94" value="" style="edgeStyle=orthogonalEdgeStyle;rounded=0;orthogonalLoop=1;jettySize=auto;html=1;" edge="1" parent="1" source="rAgP8tMJE8_hUWwcrC2L-91" target="rAgP8tMJE8_hUWwcrC2L-93">
          <mxGeometry relative="1" as="geometry" />
        </mxCell>
        <mxCell id="rAgP8tMJE8_hUWwcrC2L-91" value="obtener pila de atras&amp;nbsp;" style="whiteSpace=wrap;html=1;strokeWidth=2;" vertex="1" parent="1">
          <mxGeometry x="384.5" y="795" width="120" height="60" as="geometry" />
        </mxCell>
        <mxCell id="rAgP8tMJE8_hUWwcrC2L-93" value="mostarar nueva pagina&amp;nbsp;" style="whiteSpace=wrap;html=1;strokeWidth=2;" vertex="1" parent="1">
          <mxGeometry x="384.5" y="935" width="120" height="45" as="geometry" />
        </mxCell>
        <mxCell id="rAgP8tMJE8_hUWwcrC2L-104" value="" style="edgeStyle=orthogonalEdgeStyle;rounded=0;orthogonalLoop=1;jettySize=auto;html=1;" edge="1" parent="1" source="rAgP8tMJE8_hUWwcrC2L-95" target="rAgP8tMJE8_hUWwcrC2L-103">
          <mxGeometry relative="1" as="geometry" />
        </mxCell>
        <mxCell id="rAgP8tMJE8_hUWwcrC2L-95" value="guardar pagina actual en la pila de atras&amp;nbsp;" style="whiteSpace=wrap;html=1;strokeWidth=2;" vertex="1" parent="1">
          <mxGeometry x="605" y="650" width="200" height="60" as="geometry" />
        </mxCell>
        <mxCell id="rAgP8tMJE8_hUWwcrC2L-97" value="visualizar&amp;nbsp;&lt;div&gt;&quot;no hay&quot;&lt;/div&gt;" style="rounded=0;whiteSpace=wrap;html=1;" vertex="1" parent="1">
          <mxGeometry x="485" y="540" width="120" height="60" as="geometry" />
        </mxCell>
        <mxCell id="rAgP8tMJE8_hUWwcrC2L-98" style="edgeStyle=orthogonalEdgeStyle;rounded=0;orthogonalLoop=1;jettySize=auto;html=1;exitX=0.5;exitY=1;exitDx=0;exitDy=0;" edge="1" parent="1" source="rAgP8tMJE8_hUWwcrC2L-65" target="rAgP8tMJE8_hUWwcrC2L-65">
          <mxGeometry relative="1" as="geometry" />
        </mxCell>
        <mxCell id="rAgP8tMJE8_hUWwcrC2L-102" value="NO" style="text;html=1;align=center;verticalAlign=middle;resizable=0;points=[];autosize=1;strokeColor=none;fillColor=none;" vertex="1" parent="1">
          <mxGeometry x="430" y="538" width="40" height="30" as="geometry" />
        </mxCell>
        <mxCell id="rAgP8tMJE8_hUWwcrC2L-103" value="obtener pila de adelante&amp;nbsp;" style="whiteSpace=wrap;html=1;strokeWidth=2;" vertex="1" parent="1">
          <mxGeometry x="645" y="790" width="120" height="60" as="geometry" />
        </mxCell>
        <mxCell id="rAgP8tMJE8_hUWwcrC2L-105" value="acción&amp;nbsp;&lt;div&gt;no&amp;nbsp; aceptada&lt;/div&gt;" style="rounded=0;whiteSpace=wrap;html=1;" vertex="1" parent="1">
          <mxGeometry x="770" y="540" width="120" height="60" as="geometry" />
        </mxCell>
        <mxCell id="rAgP8tMJE8_hUWwcrC2L-107" value="NO" style="text;html=1;align=center;verticalAlign=middle;resizable=0;points=[];autosize=1;strokeColor=none;fillColor=none;" vertex="1" parent="1">
          <mxGeometry x="700" y="528" width="40" height="30" as="geometry" />
        </mxCell>
        <mxCell id="rAgP8tMJE8_hUWwcrC2L-108" value="SI" style="text;html=1;align=center;verticalAlign=middle;resizable=0;points=[];autosize=1;strokeColor=none;fillColor=none;" vertex="1" parent="1">
          <mxGeometry x="715" y="608" width="30" height="30" as="geometry" />
        </mxCell>
        <mxCell id="rAgP8tMJE8_hUWwcrC2L-109" value="fin" style="strokeWidth=2;html=1;shape=mxgraph.flowchart.terminator;whiteSpace=wrap;" vertex="1" parent="1">
          <mxGeometry x="40" y="1040" width="100" height="60" as="geometry" />
        </mxCell>
        <mxCell id="rAgP8tMJE8_hUWwcrC2L-110" style="edgeStyle=orthogonalEdgeStyle;rounded=0;orthogonalLoop=1;jettySize=auto;html=1;entryX=0.5;entryY=0;entryDx=0;entryDy=0;entryPerimeter=0;" edge="1" parent="1" source="rAgP8tMJE8_hUWwcrC2L-87" target="rAgP8tMJE8_hUWwcrC2L-109">
          <mxGeometry relative="1" as="geometry" />
        </mxCell>
        <mxCell id="rAgP8tMJE8_hUWwcrC2L-111" value="fin" style="strokeWidth=2;html=1;shape=mxgraph.flowchart.terminator;whiteSpace=wrap;" vertex="1" parent="1">
          <mxGeometry x="394.5" y="1030" width="100" height="60" as="geometry" />
        </mxCell>
        <mxCell id="rAgP8tMJE8_hUWwcrC2L-112" style="edgeStyle=orthogonalEdgeStyle;rounded=0;orthogonalLoop=1;jettySize=auto;html=1;" edge="1" parent="1" source="rAgP8tMJE8_hUWwcrC2L-93">
          <mxGeometry relative="1" as="geometry">
            <mxPoint x="445" y="1030" as="targetPoint" />
          </mxGeometry>
        </mxCell>
      </root>
    </mxGraphModel>
  </diagram>
</mxfile>
